<svg xmlns="http://www.w3.org/2000/svg" viewBox="0 0 492 492" width="492" height="492" role="img" aria-labelledby="title desc"><title id="title">Cercora App Store QR Code</title><desc id="desc">Scan to open the Cercora App Store page.</desc><rect width="492" height="492" fill="#ffffff"/><path d="M48 48h84v12H48zM168 48h24v12H168zM204 48h12v12H204zM252 48h60v12H252zM324 48h12v12H324zM360 48h84v12H360zM48 60h12v12H48zM120 60h12v12H120zM156 60h24v12H156zM204 60h36v12H204zM252 60h12v12H252zM288 60h12v12H288zM336 60h12v12H336zM360 60h12v12H360zM432 60h12v12H432zM48 72h12v12H48zM72 72h36v12H72zM120 72h12v12H120zM144 72h12v12H144zM168 72h12v12H168zM204 72h12v12H204zM228 72h12v12H228zM252 72h84v12H252zM360 72h12v12H360zM384 72h36v12H384zM432 72h12v12H432zM48 84h12v12H48zM72 84h36v12H72zM120 84h12v12H120zM144 84h24v12H144zM180 84h24v12H180zM216 84h36v12H216zM276 84h24v12H276zM324 84h12v12H324zM360 84h12v12H360zM384 84h36v12H384zM432 84h12v12H432zM48 96h12v12H48zM72 96h36v12H72zM120 96h12v12H120zM144 96h12v12H144zM168 96h24v12H168zM204 96h12v12H204zM228 96h12v12H228zM252 96h24v12H252zM300 96h48v12H300zM360 96h12v12H360zM384 96h36v12H384zM432 96h12v12H432zM48 108h12v12H48zM120 108h12v12H120zM144 108h24v12H144zM192 108h60v12H192zM288 108h24v12H288zM360 108h12v12H360zM432 108h12v12H432zM48 120h84v12H48zM144 120h12v12H144zM168 120h12v12H168zM192 120h12v12H192zM216 120h12v12H216zM240 120h12v12H240zM264 120h12v12H264zM288 120h12v12H288zM312 120h12v12H312zM336 120h12v12H336zM360 120h84v12H360zM144 132h12v12H144zM168 132h12v12H168zM192 132h12v12H192zM216 132h24v12H216zM300 132h24v12H300zM336 132h12v12H336zM48 144h12v12H48zM72 144h60v12H72zM180 144h12v12H180zM204 144h72v12H204zM312 144h12v12H312zM336 144h12v12H336zM360 144h60v12H360zM48 156h24v12H48zM96 156h24v12H96zM132 156h12v12H132zM156 156h48v12H156zM240 156h12v12H240zM264 156h84v12H264zM360 156h24v12H360zM396 156h24v12H396zM432 156h12v12H432zM48 168h24v12H48zM108 168h36v12H108zM168 168h24v12H168zM228 168h12v12H228zM264 168h12v12H264zM288 168h36v12H288zM360 168h12v12H360zM384 168h12v12H384zM408 168h24v12H408zM60 180h24v12H60zM96 180h24v12H96zM132 180h12v12H132zM156 180h12v12H156zM180 180h12v12H180zM216 180h24v12H216zM276 180h12v12H276zM300 180h60v12H300zM384 180h36v12H384zM432 180h12v12H432zM48 192h12v12H48zM108 192h24v12H108zM156 192h36v12H156zM228 192h12v12H228zM264 192h12v12H264zM348 192h12v12H348zM372 192h36v12H372zM60 204h60v12H60zM132 204h24v12H132zM180 204h24v12H180zM216 204h48v12H216zM288 204h60v12H288zM360 204h12v12H360zM408 204h36v12H408zM48 216h12v12H48zM108 216h36v12H108zM204 216h12v12H204zM252 216h12v12H252zM276 216h12v12H276zM300 216h12v12H300zM336 216h36v12H336zM384 216h24v12H384zM420 216h12v12H420zM48 228h12v12H48zM72 228h12v12H72zM96 228h24v12H96zM144 228h12v12H144zM168 228h12v12H168zM240 228h12v12H240zM276 228h36v12H276zM324 228h12v12H324zM348 228h24v12H348zM384 228h36v12H384zM60 240h12v12H60zM84 240h12v12H84zM120 240h36v12H120zM168 240h12v12H168zM192 240h12v12H192zM240 240h24v12H240zM276 240h12v12H276zM312 240h12v12H312zM348 240h12v12H348zM372 240h24v12H372zM432 240h12v12H432zM132 252h12v12H132zM156 252h12v12H156zM204 252h24v12H204zM240 252h24v12H240zM276 252h60v12H276zM360 252h24v12H360zM396 252h48v12H396zM48 264h24v12H48zM108 264h72v12H108zM192 264h12v12H192zM228 264h36v12H228zM312 264h12v12H312zM336 264h24v12H336zM372 264h24v12H372zM408 264h24v12H408zM96 276h12v12H96zM144 276h36v12H144zM192 276h12v12H192zM216 276h24v12H216zM252 276h72v12H252zM336 276h12v12H336zM372 276h60v12H372zM72 288h24v12H72zM120 288h12v12H120zM144 288h72v12H144zM228 288h24v12H228zM276 288h12v12H276zM372 288h36v12H372zM420 288h12v12H420zM48 300h36v12H48zM108 300h12v12H108zM132 300h24v12H132zM168 300h24v12H168zM216 300h24v12H216zM264 300h12v12H264zM300 300h84v12H300zM396 300h12v12H396zM432 300h12v12H432zM48 312h12v12H48zM96 312h12v12H96zM120 312h12v12H120zM144 312h36v12H144zM204 312h48v12H204zM288 312h24v12H288zM396 312h12v12H396zM420 312h12v12H420zM48 324h12v12H48zM96 324h12v12H96zM144 324h36v12H144zM192 324h24v12H192zM228 324h12v12H228zM300 324h12v12H300zM324 324h12v12H324zM348 324h12v12H348zM372 324h12v12H372zM396 324h24v12H396zM432 324h12v12H432zM48 336h12v12H48zM72 336h24v12H72zM108 336h36v12H108zM168 336h48v12H168zM228 336h12v12H228zM252 336h12v12H252zM276 336h12v12H276zM312 336h12v12H312zM336 336h72v12H336zM144 348h24v12H144zM192 348h12v12H192zM216 348h12v12H216zM240 348h12v12H240zM276 348h12v12H276zM300 348h12v12H300zM324 348h24v12H324zM384 348h12v12H384zM408 348h12v12H408zM432 348h12v12H432zM48 360h84v12H48zM168 360h12v12H168zM216 360h36v12H216zM264 360h12v12H264zM288 360h60v12H288zM360 360h12v12H360zM384 360h12v12H384zM408 360h24v12H408zM48 372h12v12H48zM120 372h12v12H120zM144 372h36v12H144zM216 372h12v12H216zM240 372h12v12H240zM288 372h60v12H288zM384 372h60v12H384zM48 384h12v12H48zM72 384h36v12H72zM120 384h12v12H120zM144 384h36v12H144zM192 384h12v12H192zM264 384h12v12H264zM288 384h12v12H288zM336 384h72v12H336zM48 396h12v12H48zM72 396h36v12H72zM120 396h12v12H120zM144 396h24v12H144zM204 396h12v12H204zM228 396h24v12H228zM276 396h12v12H276zM312 396h12v12H312zM336 396h24v12H336zM384 396h12v12H384zM408 396h36v12H408zM48 408h12v12H48zM72 408h36v12H72zM120 408h12v12H120zM144 408h12v12H144zM252 408h24v12H252zM288 408h36v12H288zM336 408h48v12H336zM48 420h12v12H48zM120 420h12v12H120zM204 420h12v12H204zM240 420h12v12H240zM288 420h24v12H288zM324 420h12v12H324zM348 420h12v12H348zM384 420h36v12H384zM48 432h84v12H48zM144 432h12v12H144zM180 432h12v12H180zM216 432h12v12H216zM252 432h24v12H252zM312 432h12v12H312zM336 432h12v12H336zM360 432h24v12H360zM420 432h12v12H420z" fill="#000000"/></svg>
